<svg width="22" height="22" viewBox="0 0 22 22" fill="none" xmlns="http://www.w3.org/2000/svg">
<path d="M15.9994 2.00006C16.2621 1.73741 16.5739 1.52907 16.917 1.38693C17.2602 1.24479 17.628 1.17163 17.9994 1.17163C18.3709 1.17163 18.7387 1.24479 19.0818 1.38693C19.425 1.52907 19.7368 1.73741 19.9994 2.00006C20.2621 2.2627 20.4704 2.57451 20.6125 2.91767C20.7547 3.26083 20.8278 3.62862 20.8278 4.00006C20.8278 4.37149 20.7547 4.73929 20.6125 5.08245C20.4704 5.42561 20.2621 5.73741 19.9994 6.00006L6.49942 19.5001L0.99942 21.0001L2.49942 15.5001L15.9994 2.00006Z" stroke="black" stroke-width="2" stroke-linecap="round" stroke-linejoin="round"/>
</svg>
